<svg width="1727" height="472" viewBox="0 0 1727 472" fill="none" xmlns="http://www.w3.org/2000/svg">
<path d="M64.256 233.952L57.088 241.12V364H0.768002V5.59998H57.088V168.416L133.376 97.76L174.848 137.184L107.776 194.016C110.165 197.429 113.749 203.403 118.528 211.936C155.051 272.693 186.112 323.381 211.712 364H141.056L64.256 233.952ZM281.156 60.896C272.964 60.896 265.796 57.824 259.652 51.68C253.508 45.536 250.436 38.368 250.436 30.176C250.436 22.3253 253.508 15.4987 259.652 9.69598C265.796 3.55198 272.964 0.47998 281.156 0.47998C289.007 0.47998 295.833 3.55198 301.636 9.69598C307.78 15.4987 310.852 22.3253 310.852 30.176C310.852 38.368 307.78 45.536 301.636 51.68C295.833 57.824 289.007 60.896 281.156 60.896ZM251.46 107.488H307.78V364H251.46V107.488ZM391.936 5.59998H448.256V364H391.936V5.59998ZM719.912 269.792C719.912 298.464 712.061 322.187 696.36 340.96C680.659 359.733 656.936 369.12 625.192 369.12C593.448 369.12 569.384 359.733 553 340.96C536.957 321.845 528.936 298.123 528.936 269.792V202.208C528.936 169.781 537.128 145.035 553.512 127.968C570.237 110.56 594.131 101.856 625.192 101.856C654.888 101.856 678.099 110.901 694.824 128.992C711.549 146.741 719.912 171.147 719.912 202.208V269.792ZM664.104 202.208C664.104 184.117 660.349 172.341 652.84 166.88C645.331 161.419 636.115 158.688 625.192 158.688C598.568 158.688 585.256 173.195 585.256 202.208V274.912C585.256 288.565 589.011 298.464 596.52 304.608C604.029 310.752 613.587 313.824 625.192 313.824C636.456 313.824 645.672 310.581 652.84 304.096C660.349 297.611 664.104 287.883 664.104 274.912V202.208ZM868.272 427.488C879.877 427.488 888.923 424.075 895.408 417.248C902.235 410.763 905.648 400.864 905.648 387.552V359.904C902.917 361.952 897.968 364.171 890.8 366.56C883.973 368.949 875.099 370.144 864.176 370.144C834.139 370.144 810.757 361.952 794.032 345.568C777.307 329.184 768.944 305.291 768.944 273.888V197.6C768.944 167.563 777.648 144.352 795.056 127.968C812.805 111.243 836.528 102.88 866.224 102.88C875.781 102.88 884.315 104.075 891.824 106.464C899.333 108.512 904.112 110.731 906.16 113.12L916.912 107.488H961.968V396.768C961.968 446.603 935.173 471.52 881.584 471.52L868.272 427.488ZM905.648 202.72C905.648 189.067 902.576 178.315 896.432 170.464C890.288 162.613 879.536 158.688 864.176 158.688C850.181 158.688 840.112 162.784 833.968 170.976C828.165 178.827 825.264 188.555 825.264 200.16V266.208C825.264 299.317 838.235 315.872 864.176 315.872C880.901 315.872 891.995 310.411 897.456 299.488C902.917 288.565 905.648 270.645 905.648 245.728V202.72ZM1020.73 107.488H1072.96L1077.05 109.536C1091.05 104.757 1104.19 102.368 1116.48 102.368C1125.01 102.368 1137.47 104.075 1153.85 107.488L1164.09 109.536L1150.78 164.32C1141.22 159.541 1131.84 157.152 1122.62 157.152C1109.99 157.152 1099.24 161.077 1090.36 168.928C1081.49 176.437 1077.05 186.507 1077.05 199.136V364H1020.73V107.488ZM1349.06 364C1312.2 367.755 1285.58 369.632 1269.19 369.632C1233.35 369.632 1204.85 362.976 1183.69 349.664C1162.53 336.352 1151.94 312.288 1151.94 277.472V234.976C1151.94 201.184 1163.72 178.485 1187.27 166.88C1198.54 161.419 1211.34 158.688 1225.67 158.688C1238.3 158.688 1250.76 160.395 1263.05 163.808C1275.34 167.221 1285.23 170.976 1292.74 175.072C1292.74 162.443 1287.62 153.909 1277.38 149.472C1267.14 144.693 1254 142.304 1237.96 142.304L1242.57 103.392C1275.34 103.392 1299.4 108.683 1314.76 119.264C1330.46 129.504 1340.02 141.792 1343.43 156.128C1347.19 170.464 1349.06 188.896 1349.06 211.424V364ZM1292.74 234.976C1286.6 230.539 1277.9 226.443 1266.63 222.688C1255.71 218.592 1245.64 216.544 1236.42 216.544C1228.23 216.544 1221.58 218.592 1216.46 222.688C1211.34 226.784 1208.78 233.269 1208.78 242.144V270.304C1208.78 301.365 1227.04 316.896 1263.56 316.896C1274.14 316.896 1283.87 316.043 1292.74 314.336V234.976ZM1670.6 208.352C1670.6 189.92 1668.04 176.608 1662.92 168.416C1658.15 160.224 1650.29 156.128 1639.37 156.128C1631.52 156.128 1620.94 158.517 1607.63 163.296L1598.92 166.88C1599.61 168.928 1600.12 171.317 1600.46 174.048C1600.8 176.779 1600.97 179.339 1600.97 181.728V364H1544.65V209.888C1544.65 192.821 1540.73 179.68 1532.88 170.464C1525.03 161.248 1514.44 156.64 1501.13 156.64C1489.19 156.64 1476.73 160.395 1463.76 167.904V364H1407.44V107.488H1457.1L1463.76 111.072C1475.02 105.952 1487.82 103.392 1502.16 103.392C1513.76 103.392 1525.03 105.44 1535.95 109.536C1546.87 113.291 1556.43 119.435 1564.62 127.968C1569.4 125.237 1576.57 121.483 1586.12 116.704C1606.26 107.488 1625.72 102.88 1644.49 102.88C1668.73 102.88 1688.52 110.389 1703.88 125.408C1719.24 140.085 1726.92 160.565 1726.92 186.848V364H1670.6V208.352Z" fill="white"/>
</svg>
